<svg width="51" height="48" fill="none" xmlns="http://www.w3.org/2000/svg"><g filter="url(#a)"><path d="M24.488 1.114c.407-.85 1.617-.85 2.024 0l5.364 11.202c.163.342.488.578.864.628l12.311 1.64c.935.124 1.308 1.274.626 1.924l-8.997 8.563a1.122 1.122 0 0 0-.33 1.016l2.245 12.216c.17.927-.808 1.638-1.637 1.19l-10.924-5.911a1.122 1.122 0 0 0-1.068 0l-10.924 5.91c-.829.449-1.808-.262-1.637-1.19l2.245-12.215a1.122 1.122 0 0 0-.33-1.016l-8.997-8.563c-.682-.65-.309-1.8.625-1.925l12.312-1.64c.376-.05.7-.285.864-.627l5.364-11.202Z" fill="#FFD66C"/><path d="M25.136 1.424a.403.403 0 0 1 .728 0l5.363 11.203c.269.56.802.947 1.418 1.03l12.312 1.639c.335.045.47.458.224.692l-8.996 8.563a1.84 1.84 0 0 0-.542 1.666l2.245 12.216a.403.403 0 0 1-.588.427l-10.924-5.91a1.84 1.84 0 0 0-1.752 0L13.7 38.86a.403.403 0 0 1-.588-.427l2.245-12.216a1.84 1.84 0 0 0-.541-1.666l-8.997-8.563a.403.403 0 0 1 .224-.692l12.312-1.64a1.841 1.841 0 0 0 1.418-1.03l5.363-11.202Z" stroke="#EFB153" stroke-width="1.438"/></g><defs><filter id="a" x=".973" y=".476" width="49.053" height="47.154" filterUnits="userSpaceOnUse" color-interpolation-filters="sRGB"><feFlood flood-opacity="0" result="BackgroundImageFix"/><feColorMatrix in="SourceAlpha" values="0 0 0 0 0 0 0 0 0 0 0 0 0 0 0 0 0 0 127 0" result="hardAlpha"/><feOffset dy="4"/><feGaussianBlur stdDeviation="2"/><feComposite in2="hardAlpha" operator="out"/><feColorMatrix values="0 0 0 0 0 0 0 0 0 0 0 0 0 0 0 0 0 0 0.25 0"/><feBlend in2="BackgroundImageFix" result="effect1_dropShadow_2_27"/><feBlend in="SourceGraphic" in2="effect1_dropShadow_2_27" result="shape"/></filter></defs></svg>